<svg data-v-0dd9719b="" version="1.0" xmlns="http://www.w3.org/2000/svg" xmlns:xlink="http://www.w3.org/1999/xlink"
     width="100%" height="100%" viewBox="0 0 190.000000 190.000000" preserveAspectRatio="xMidYMid meet"
     color-interpolation-filters="sRGB" style="margin: auto;">
    <g data-v-0dd9719b="" fill="#000" class="newinitialsvg-g newinitialsvg" transform="translate(7,56.5)">
        <g class="tp-name">
            <g transform="translate(0, 0)">
                <g data-gra="path-name" fill="#000" transform="translate(0,3)">
                    <g transform="scale(1)">
                        <path d="M41.93 0L2.80 0L2.80-7.49L18.48-31.15L4.06-27.86L5.46-42.42L41.93-42.42L41.93-34.79L21.42-10.01L43.33-14.21L41.93 0Z"
                              transform="translate(-2.8000000000000003, 49.21000000000001)"></path>
                    </g>
                </g>
            </g>
            <g transform="translate(44.53000000000001, 0)">
                <g data-gra="path-name" fill="#000" transform="translate(0,3)">
                    <g transform="scale(1)">
                        <path d="M18.76-32.20L18.76-32.20L19.95-32.62L17.57 0L4.34 0L2.10-32.62Q6.09-31.01 10.61-31.01Q15.12-31.01 18.76-32.20ZM10.99-34.09Q7.49-34.09 5.11-36.19Q2.73-38.29 2.73-41.69Q2.73-45.08 5.08-47.15Q7.42-49.21 10.96-49.21Q14.49-49.21 16.87-47.11Q19.25-45.01 19.25-41.65Q19.25-38.29 16.87-36.19Q14.49-34.09 10.99-34.09Z"
                              transform="translate(-2.1, 49.21000000000001)"></path>
                    </g>
                </g>
            </g>
            <g class="tp-graph" transform="translate(66.38000000000001, 0)"
               mask="url(#def2ee46-9761-4023-a46e-da73742da760)">
                <rect data-gra="graph-name" fill="#ffba5a" x="0" y="0" width="45.34" height="67.18"></rect>
                <g data-gra="path-name" transform="translate(2.9999999237060564,3)">
                    <g transform="scale(1)" fill="#ffba5a">
                        <path d="M27.09 0.70L27.09 0.70Q23.17 0.70 20.58-1.12L20.58-1.12Q18.27-2.80 17.01-4.55L17.01-4.55L16.10 11.97L4.13 11.97L2.10-33.18L17.15-33.18L17.92-29.26Q18.27-29.82 19.01-30.63Q19.74-31.43 22.16-32.80Q24.57-34.16 27.16-34.16Q29.75-34.16 32.03-33.39Q34.30-32.62 36.51-30.91Q38.71-29.19 40.08-25.69Q41.44-22.19 41.44-17.36L41.44-17.36Q41.44-8.54 37.45-3.92Q33.46 0.70 27.09 0.70ZM22.82-24.71L22.82-24.71Q18.20-24.71 18.20-16.31L18.20-16.31Q18.20-13.37 19.22-11.13Q20.23-8.89 22.26-8.89Q24.29-8.89 25.34-10.36L25.34-10.36Q26.95-12.60 26.95-16.31L26.95-16.31Q26.95-24.71 22.82-24.71Z"
                              transform="translate(-2.1, 49.21000000000001)"></path>
                    </g>
                </g>
            </g>
            <g transform="translate(115.72000000000001, 0)">
                <g data-gra="path-name" fill="#000" transform="translate(0,3)">
                    <g transform="scale(1)">
                        <path d="M18.76-32.20L18.76-32.20L19.95-32.62L17.57 0L4.34 0L2.10-32.62Q6.09-31.01 10.61-31.01Q15.12-31.01 18.76-32.20ZM10.99-34.09Q7.49-34.09 5.11-36.19Q2.73-38.29 2.73-41.69Q2.73-45.08 5.08-47.15Q7.42-49.21 10.96-49.21Q14.49-49.21 16.87-47.11Q19.25-45.01 19.25-41.65Q19.25-38.29 16.87-36.19Q14.49-34.09 10.99-34.09Z"
                              transform="translate(-2.1, 49.21000000000001)"></path>
                    </g>
                </g>
            </g>
            <g transform="translate(137.57000000000002, 0)">
                <g data-gra="path-name" fill="#000" transform="translate(0,3)">
                    <g transform="scale(1)">
                        <path d="M28.56-34.16L28.56-34.16Q33.46-34.16 37.00-30.03Q40.53-25.90 40.53-19.29Q40.53-12.67 38.92 0L38.92 0L26.67 0L25.27-15.68Q24.57-23.17 21.21-23.17L21.21-23.17Q17.22-23.17 16.94-15.61L16.94-15.61L16.45 0L3.57 0L2.10-33.18L17.92-33.18L17.64-27.23Q17.99-27.93 19.25-29.40Q20.51-30.87 21.70-31.78L21.70-31.78Q24.78-34.16 28.56-34.16Z"
                              transform="translate(-2.1, 49.21000000000001)"></path>
                    </g>
                </g>
            </g>
        </g> <!---->
    </g>
    <defs v-gra="od"></defs>
    <mask id="def2ee46-9761-4023-a46e-da73742da760">
        <rect data-gra="graph-name" x="0" y="0" width="45.34" height="67.18" fill="white"></rect>
        <g data-gra="path-name" transform="translate(2.9999999237060564,3)" fill="black">
            <g transform="scale(1)">
                <path d="M27.09 0.70L27.09 0.70Q23.17 0.70 20.58-1.12L20.58-1.12Q18.27-2.80 17.01-4.55L17.01-4.55L16.10 11.97L4.13 11.97L2.10-33.18L17.15-33.18L17.92-29.26Q18.27-29.82 19.01-30.63Q19.74-31.43 22.16-32.80Q24.57-34.16 27.16-34.16Q29.75-34.16 32.03-33.39Q34.30-32.62 36.51-30.91Q38.71-29.19 40.08-25.69Q41.44-22.19 41.44-17.36L41.44-17.36Q41.44-8.54 37.45-3.92Q33.46 0.70 27.09 0.70ZM22.82-24.71L22.82-24.71Q18.20-24.71 18.20-16.31L18.20-16.31Q18.20-13.37 19.22-11.13Q20.23-8.89 22.26-8.89Q24.29-8.89 25.34-10.36L25.34-10.36Q26.95-12.60 26.95-16.31L26.95-16.31Q26.95-24.71 22.82-24.71Z"
                      transform="translate(-2.1, 49.21000000000001)"></path>
            </g>
        </g>
    </mask>
</svg>
